# xmcd CD database file
#
# Track frame offsets:
#	150
#	12834
#	24947
#	39438
#	52201
#	67626
#	83630
#	97794
#	113649
#	127049
#	140221
#	152561
#	165033
#	179715
#	191889
#	204825
#	216559
#	230860
#	242783
#	256215
#	268770
#	282367
#	296460
#	311900
#	328221
#	339315
#
# Disc length: 4708 seconds
#
# Revision: 0
# Processed by: cddbd v1.5.2PL0 Copyright (c) Steve Scherf et al.
# Submitted via: CDex 1.70beta2
#
DISCID=7e12621a
DTITLE=Charlie Parker - The Complete Norman Granz Master Takes 03
DYEAR=1900
DGENRE=Jazz
TTITLE0=Blues for Alice
TTITLE1=Si Si
TTITLE2=Swedish Schnapps
TTITLE3=Back Home Blues
TTITLE4=Loverman
TTITLE5=Temptation
TTITLE6=Lover
TTITLE7=Autumn in New York
TTITLE8=Stella by Starlight
TTITLE9=Mama Inez
TTITLE10=La Cucaracha
TTITLE11=Estrellita
TTITLE12=Begin the Beguine
TTITLE13=La Paloma
TTITLE14=Night and Day
TTITLE15=Almost Like Being in Love
TTITLE16=I Can't Get Started
TTITLE17=What is this Thing Called Love?
TTITLE18=The Song is You
TTITLE19=Laird Baird
TTITLE20=Kim
TTITLE21=Cosmic Rays
TTITLE22=In the Still of the Night
TTITLE23=Old Folks
TTITLE24=If I Love Again
TTITLE25=Chi Chi
EXTD=
EXTT0=
EXTT1=
EXTT2=
EXTT3=
EXTT4=
EXTT5=
EXTT6=
EXTT7=
EXTT8=
EXTT9=
EXTT10=
EXTT11=
EXTT12=
EXTT13=
EXTT14=
EXTT15=
EXTT16=
EXTT17=
EXTT18=
EXTT19=
EXTT20=
EXTT21=
EXTT22=
EXTT23=
EXTT24=
EXTT25=
PLAYORDER=
